<?xml version="1.0" encoding="iso-8859-1"?>
<!-- Generator: Adobe Illustrator 19.0.0, SVG Export Plug-In . SVG Version: 6.00 Build 0)  -->
<svg xmlns="http://www.w3.org/2000/svg" xmlns:xlink="http://www.w3.org/1999/xlink" version="1.1" id="Capa_1" x="0px" y="0px" viewBox="0 0 512 512" style="enable-background:new 0 0 512 512;" xml:space="preserve" width="512px" height="512px">
<g>
	<g>
		<path d="M512,276.705V63.371h-30v59.667h-29.667v-21.333H399V42.038h-30v59.667H150.674L111,94.558V63h11.666V33H69.334v30H81    v26.154L49,83.39v229.648h32v49h30v-49h28.314l16.581-58.032c2.798-9.794,11.867-16.635,22.053-16.635h124.528    c4.849,0,9.356,2.18,12.367,5.981c3.01,3.801,4.1,8.688,2.99,13.408l-31.046,131.944H0V479h512v-89.295h-59.667V217.038H482    v59.667H512z M347.035,264.631c3.223-13.695,0.061-27.876-8.675-38.905c-8.735-11.029-21.815-17.355-35.884-17.355H177.948    c-23.51,0-44.44,15.788-50.899,38.393l-10.364,36.273H79v-163.76l68.994,12.428h274.34v258H317.605L347.035,264.631z M482,419.705    V449H30v-29.295H482z M452.333,187.038v-34H482v34H452.333z" fill="#FFFFFF"/>
	</g>
</g>
<g>
	<g>
		<rect x="362.661" y="327.338" transform="matrix(0.7071 -0.7071 0.7071 0.7071 -131.4552 367.3145)" width="30" height="30" fill="#FFFFFF"/>
	</g>
</g>
<g>
</g>
<g>
</g>
<g>
</g>
<g>
</g>
<g>
</g>
<g>
</g>
<g>
</g>
<g>
</g>
<g>
</g>
<g>
</g>
<g>
</g>
<g>
</g>
<g>
</g>
<g>
</g>
<g>
</g>
</svg>
